# xmcd
#
# Track frame offsets:
#	150
#	21897
#	37387
#	58455
#	80455
#	101185
#	121210
#	136887
#	155795
#	165805
#	187235
#	206920
#
# Disc length: 3018 seconds
#
# Revision: 1
# Processed by: cddbd v1.5PL3 Copyright (c) Steve Scherf et al.
# Submitted via: CDex 1.50Beta5
#
DISCID=b30bc80c
DTITLE=Jack and Betty - Twururi-ra
DYEAR=1998
DGENRE=Rock
TTITLE0=テレパシー
TTITLE1=あのね!!!
TTITLE2=未来がうまれる瞬間
TTITLE3=ひとつだけ
TTITLE4=気にしないモンネッ
TTITLE5=Sweet Holiday
TTITLE6=隣のbodyガード
TTITLE7=STEP BY STEP
TTITLE8=いちごみるくぅ
TTITLE9=Newsです。
TTITLE10=Twister
TTITLE11=KE-SE-RA-SE-RA
EXTD=
EXTT0=
EXTT1=
EXTT2=
EXTT3=
EXTT4=
EXTT5=
EXTT6=
EXTT7=
EXTT8=
EXTT9=
EXTT10=
EXTT11=
PLAYORDER=
